<?xml version="1.0" encoding="utf-8"?>
<!-- Generator: Adobe Illustrator 19.0.0, SVG Export Plug-In . SVG Version: 6.00 Build 0)  -->
<svg version="1.1" id="Layer_1" xmlns="http://www.w3.org/2000/svg" xmlns:xlink="http://www.w3.org/1999/xlink" x="0px" y="0px"
	 viewBox="0 0 500 500" style="enable-background:new 0 0 500 500;" xml:space="preserve">
<style type="text/css">
	.st0{fill:#FFFFFF;}
	.st1{fill:#EF945A;}
	.st2{fill:#CE4A63;}
	.st3{fill:#AD2931;}
	.st4{fill:#FF6600;}
	.st5{fill:#F7CEB5;}
	.st6{fill:#EFAD84;}
	.st7{fill:#EFAD7B;}
</style>
<g id="XMLID_1_">
	<path id="XMLID_3_" class="st0" d="M67.5,299.6c0-33.1,0-66.2,0-99.2c121.7,0,243.3,0,365,0c0,33.1,0,66.1,0,99.2
		C310.8,299.6,189.2,299.6,67.5,299.6L67.5,299.6z"/>
	<path id="XMLID_4_" class="st1" d="M137.1,295.7c97,0,194,0,291.1,0.1c0,0.1-0.1,0.1-0.1,0.2c-97.1-0.1-194.2-0.1-291.2-0.1
		C136.9,295.8,137,295.7,137.1,295.7L137.1,295.7z"/>
	<path id="XMLID_5_" class="st2" d="M71.8,295.9L71.8,295.9c15.7,0,31.4,0,47.1,0C103.1,295.9,87.4,295.9,71.8,295.9z"/>
	<path id="XMLID_6_" class="st2" d="M71.8,204.7L71.8,204.7c0,30.4,0,60.8,0,91.1v0c-0.1,0-0.1,0-0.1,0c0-30.4,0-60.8,0-91.2
		C71.7,204.7,71.7,204.7,71.8,204.7L71.8,204.7z"/>
	<path id="XMLID_7_" class="st3" d="M118.8,295.9c-15.7,0-31.4,0-47.1,0c0-30.4,0-60.7,0-91.1c15.7,0,31.4-0.1,47.1-0.1
		c1.6,0.1,3.3,0.2,4.9,0.3c0.1,0.1,2.1,0.3,2.2,0.5c8.9,1.6,16.1,5.8,22.9,11.6c3.3,3.4,5.9,6.8,8.5,10.8c0.9,1.9,1.8,3.8,2.7,5.7
		c1.3,4.2,2.2,8,2.9,12.2c0,2.3,0.1,4.6,0.2,6.9c-0.2,1.7-0.4,3.5-0.6,5.2c-1.4,6.9-3.9,12.7-7.7,18.5c-1.9,2.5-1.9,2.5-2.1,2.8
		c-5,5.3-9.9,9.2-16.4,12.5c-1.6,0.6-3.2,1.2-4.8,1.8C127.5,294.9,123.2,295.7,118.8,295.9L118.8,295.9z"/>
	<path id="XMLID_8_" class="st4" d="M137.1,295.7c6-2.7,11.2-6.1,16.1-10.5c0.2-0.3,1.9-2,4.8-5.4c2.7-3.7,5-7.4,7.1-11.6
		c0.6-1.6,1.2-3.2,1.8-4.8c3.4-11.3,3.2-22.3-0.3-33.6c-0.6-1.5-1.2-3-1.7-4.5c-3.4-6.6-7.4-12.1-12.7-17.2
		c-1.4-1.2-2.7-2.3-4.1-3.4c93.3,0,186.7-0.1,280-0.1c0,0,0.1,0.1,0.1,0.1c0,30.3,0,60.6,0,91C331.2,295.7,234.1,295.7,137.1,295.7
		L137.1,295.7z"/>
	<path id="XMLID_9_" class="st0" d="M117.2,286.2c-1.9-13.4-4.1-27-5.6-40.4c2.1-1.1,2.7-3.4,3.4-5.5c0.4-2.3,1-4.9,0.9-7.3
		c-4.1,0.1-8.5,0.5-12.2,2.3c-4.6,0-4.9-6.4-0.1-6.9c4.1,1.6,8.2,2.2,12.5,2.3c-0.2-4.3-0.7-8.3-2.3-12.3c0-1.2,0.3-1.8,1-2.7
		c2.7-1.8,5.3-0.6,5.8,2.6c-1.7,4.1-1.9,7.8-2.3,12.2c0.1,0,0.1,0.1,0.2,0.1c4.2-0.2,8.4-0.6,12.3-2.3c4.7,0.4,4.5,6.9-0.1,6.9
		c-3.7-1.9-8.3-2.1-12.3-2.2c0.3,2.5,0.5,11.8,4.5,12.8c-0.2,2.1-0.3,2.2-4.3,31.9C118.4,277.8,117.4,286,117.2,286.2L117.2,286.2z"
		/>
	<path id="XMLID_10_" class="st0" d="M334.6,278.5c-6-0.5-9.9-2.6-13.3-7.7c-0.5-1.1-1-2.1-1.5-3.2c-3.2-12.4,2.9-25.2,16.3-26.8
		c3.7,0,7.2,0.9,10.8,2.1c-0.1,0.5-0.1,0.5-2.1,5.9c-1-0.1-1-0.1-3.3-0.6c-1.3,0-2.7,0-4,0c-2.8,0.7-4.7,1.5-6.6,3.6
		c-3.8,5.6-4.5,13.2,1.4,17.8c0.7,0.3,1.5,0.7,2.2,1c3.5,0.5,6.9,0.2,10.2-0.8c0.7-0.3,0.7-0.3,1-0.3c0.7,1.4,2,3.2,2.3,4.7
		C343.7,276.5,339.4,277.9,334.6,278.5L334.6,278.5z"/>
	<path id="XMLID_11_" class="st0" d="M228.5,234.2c-0.9,0-1.9,0-2.7,0c-6.1,0-11.1,3.5-14.5,8.3c-1,2.2-1.5,3.7-1.6,3.8
		c-1.2,5-0.9,9.5,0.8,14.3c2.4,4.7,5.1,7.1,9.9,9c1,0.2,2.1,0.4,3.1,0.6c2.2,0,5.7,0.3,7.5-0.7c0-3.8,0-7.7,0.1-11.5
		c0-0.1,0-0.1-8.8-0.2c0-2.4,0-4.9,0-7.3v-0.1c5.9,0,11.8,0,17.8,0c0,8.1,0,16.2,0.1,24.4c-1.7,0.6-3.4,1.2-5.1,1.7
		c-2.9,0.7-5.7,1.4-8.7,1.7c-4.2,0.2-7.7-0.2-11.7-1.4c-7.7-3.2-12.2-8.6-14.5-16.6c-1.2-6.3-1.2-11.6,0.7-17.8
		c1.2-3.1,2.9-5.6,4.9-8.2c3.7-3.7,7.3-5.5,12.2-7.3c7.1-1.5,13.9-0.7,20.9,1.2c-0.8,2.3-1.6,4.6-2.4,7
		C231.5,234.5,231.5,234.5,228.5,234.2L228.5,234.2z"/>
	<path id="XMLID_14_" class="st0" d="M262.3,240.9c-4.4,0.2-8.7,1.8-13.1,3.6c0.7,1.7,1.3,3.5,2,5.3c1.9-0.6,3.8-1.2,5.8-1.8
		c2.1-0.5,4.5-0.6,6.7-0.2c3.4,1.4,3.5,4.1,3.6,7.4c-6.1,0.4-11.8,0.5-17,3.9c-1.1,1.1-2.3,2.1-3,3.5c-1.1,3-1,5.5-0.3,8.5
		c1.7,3.6,3.5,5.4,7.2,6.8c5.3,1,9.1-1.1,13-4.7c0.1,0,0.1,0.1,0.2,0.1c0.5,3.7,0.7,3.8,0.7,4c2.6,0,5.1,0,7.7,0.1
		c0-8.7-0.1-17.3-0.1-26c-0.7-3.9-1.9-6.6-5.2-8.9C267.6,241.2,264.9,240.8,262.3,240.9z M267.2,260.8c0,2.2,0.1,4.4,0.1,6.5
		c-1.5,2.6-5.5,3.8-8.3,4.1c-2-0.5-3.3-1.1-4.2-3.1C253.6,261.3,262.1,261,267.2,260.8z"/>
	<path id="XMLID_17_" class="st0" d="M384.5,240.8c-4.2,0.5-8.3,1.9-12.2,3.7c-0.3,0.8,1.3,4.2,2,5.3c3.9-1.4,7.1-2.4,11.2-2.4
		c0.1,0.1,0.1,0.2,1.5,0.4c3,1.6,3,4.1,3.3,7.3c-7.4,0.5-17.4,0.4-20.5,8.8c-1.4,7,2.1,13.2,9.3,14.3c4.5,0,7.9-2,11-5.1
		c0.1,0,0.2,0,0.3,0c0.5,3.6,0.5,3.6,0.7,4.3c2.5,0,5-0.1,7.5-0.1c0-8.2,0-16.3,0-24.5c-0.4-5-1.7-7.9-5.9-10.7
		c-2.3-0.9-3.3-1.1-3.5-1.2C387.8,241,386.1,240.9,384.5,240.8z M390.3,260.8c0,2.3,0,4.6,0.1,6.9c-3.1,2.5-8.8,6.2-12,1.7
		C375,261.9,385.4,260.9,390.3,260.8z"/>
	<path id="XMLID_18_" class="st1" d="M303.2,277.5c2.9,0,5.8-0.1,8.7-0.1C311.4,277.9,304.3,277.5,303.2,277.5z"/>
	<path id="XMLID_19_" class="st1" d="M391.2,277.5c2.5,0,5-0.1,7.5-0.1h0.1c-0.1,0-0.2,0.1-0.3,0.1
		C396.1,277.5,393.6,277.5,391.2,277.5L391.2,277.5z"/>
	<path id="XMLID_20_" class="st1" d="M268,277.4c2.6,0,5.1,0,7.7,0.1C267.9,277.4,267.9,277.4,268,277.4z"/>
	<path id="XMLID_21_" class="st1" d="M284.5,223.2c0,18.1,0,36.1,0.1,54.2c2.9,0,5.9,0,8.9,0c-3.1,0-6.1,0-9.2,0
		C284.4,259.3,284.5,241.3,284.5,223.2z"/>
	<path id="XMLID_22_" class="st1" d="M354.6,277.4c2.9,0,5.9,0,8.9,0C354.6,277.5,354.6,277.5,354.6,277.4z"/>
	<path id="XMLID_23_" class="st1" d="M303,241.7c0,11.9,0,23.9,0,35.8C302.9,277.5,302.9,277.5,303,241.7z"/>
	<path id="XMLID_24_" class="st0" d="M303,277.5c0-11.9,0-23.9,0-35.8c0,0,0.1,0,0.1,0c2.9,0,5.8,0,8.7,0c0,11.9,0.1,23.8,0.1,35.7
		c-2.9,0-5.8,0-8.7,0.1C303.1,277.5,303.1,277.5,303,277.5z"/>
	<path id="XMLID_25_" class="st0" d="M284.5,223.2c0-0.1,0-0.1,0-0.2c3,0,6,0,9,0c0,18.1,0,36.3,0,54.4c-3,0-6,0-8.9,0
		C284.6,259.3,284.5,241.3,284.5,223.2L284.5,223.2z"/>
	<path id="XMLID_26_" class="st0" d="M354.6,277.4c0-11.9,0-23.8,0-35.6c2.9,0,5.9-0.1,8.8-0.1c0,11.9,0.1,23.8,0.1,35.7
		C360.6,277.4,357.6,277.4,354.6,277.4z"/>
	<path id="XMLID_27_" class="st5" d="M398.7,277.4c0-8.2,0-16.3,0-24.5c0,8.2,0,16.3,0.1,24.5H398.7L398.7,277.4z"/>
	<path id="XMLID_28_" class="st5" d="M239.9,274.8c0-8.2-0.1-16.3-0.1-24.4l0.1-0.1C239.9,258.4,239.9,266.6,239.9,274.8z"/>
	<path id="XMLID_29_" class="st6" d="M390.3,267.7c0-2.3-0.1-4.6-0.1-6.9c0,0,0.1,0,0.1,0.1C390.4,263.1,390.3,265.4,390.3,267.7
		L390.3,267.7z"/>
	<path id="XMLID_30_" class="st7" d="M222,257.7h0.1c8.8,0.1,8.8,0.1,8.8,0.2c-2.9,0-5.9,0-8.8,0C222,257.9,222,257.8,222,257.7z"/>
	<path id="XMLID_31_" class="st5" d="M222,257.7c0-2.4,0-4.9,0.1-7.3c0,2.4,0,4.9,0,7.3H222z"/>
	<path id="XMLID_32_" class="st6" d="M222.1,250.4c0-0.1,0-0.1,17.8-0.1l-0.1,0.1C233.9,250.4,228,250.4,222.1,250.4z"/>
	<path id="XMLID_33_" class="st5" d="M354.6,241.8c0-0.1,0-0.1,8.8-0.1C360.5,241.7,357.5,241.8,354.6,241.8z"/>
	<path id="XMLID_34_" class="st0" d="M307.2,233.8c-4.5-0.5-5.7-5.4-2.9-8.6c4.5-2.8,8.8,0.6,7.5,5.7
		C310.6,232.8,309.4,233.6,307.2,233.8L307.2,233.8z"/>
	<path id="XMLID_35_" class="st0" d="M358.8,233.8c-3.8-0.8-5.5-4-3.7-7.6c2.2-2.5,5.6-2.7,7.8-0.1c1.6,3.4,0.6,6.3-2.8,7.6
		C359.7,233.7,359.2,233.7,358.8,233.8z"/>
	<path id="XMLID_36_" class="st6" d="M284.5,223c0-0.1,0.1-0.2,0.1-0.2c2.9,0,5.8,0,8.7,0c0,0.1,0.1,0.1,0.1,0.2
		C290.5,223,287.5,223,284.5,223L284.5,223z"/>
	<path id="XMLID_37_" class="st2" d="M71.8,204.8L71.8,204.8c15.7-0.1,31.4-0.1,47.1-0.1C103.1,204.7,87.4,204.7,71.8,204.8z"/>
	<path id="XMLID_38_" class="st1" d="M148,204.8c0-0.1,0-0.1,280-0.1C334.7,204.7,241.4,204.7,148,204.8L148,204.8z"/>
</g>
</svg>
