<?xml version="1.0" encoding="iso-8859-1"?>
<!-- Generator: Adobe Illustrator 19.0.0, SVG Export Plug-In . SVG Version: 6.00 Build 0)  -->
<svg version="1.1" id="Capa_1" xmlns="http://www.w3.org/2000/svg" xmlns:xlink="http://www.w3.org/1999/xlink" x="0px" y="0px"
	 viewBox="0 0 432 432" style="enable-background:new 0 0 432 432;" xml:space="preserve">
<g>
	<path d="M376,249.376V120.25c0-13.234-10.767-24-24-24V16c4.418,0,8-3.582,8-8s-3.582-8-8-8h-8h-56h-8c-4.418,0-8,3.582-8,8
		s3.582,8,8,8v80.25c-13.233,0-24,10.766-24,24V136h-80v-15.75c0-13.234-10.767-24-24-24V16c4.418,0,8-3.582,8-8s-3.582-8-8-8h-8H88
		h-8c-4.418,0-8,3.582-8,8s3.582,8,8,8v80.25c-13.233,0-24,10.766-24,24v129.126c-9.311,3.302-16,12.195-16,22.624v136
		c0,13.233,10.767,24,24,24h104c13.233,0,24-10.767,24-24V272c0-10.429-6.689-19.321-16-22.624V232h80v17.376
		c-9.311,3.302-16,12.195-16,22.624v136c0,13.233,10.767,24,24,24h104c13.233,0,24-10.767,24-24V272
		C392,261.571,385.311,252.679,376,249.376z M336,16v80h-40V16H336z M136,16v80H96V16H136z M272,120.25c0-4.411,3.589-8,8-8h72
		c4.411,0,8,3.589,8,8V248h-88V120.25z M80,112.25h72c4.411,0,8,3.589,8,8V248H72V120.25C72,115.839,75.589,112.25,80,112.25z
		 M176,408c0,4.411-3.589,8-8,8H64c-4.411,0-8-3.589-8-8v-8h96c4.418,0,8-3.582,8-8s-3.582-8-8-8H56V272c0-4.411,3.589-8,8-8h104
		c4.411,0,8,3.589,8,8V408z M176,216v-64h80v64H176z M376,408c0,4.411-3.589,8-8,8H264c-4.411,0-8-3.589-8-8v-8h96
		c4.418,0,8-3.582,8-8s-3.582-8-8-8h-96V272c0-4.411,3.589-8,8-8h104c4.411,0,8,3.589,8,8V408z"/>
	<path d="M216,160c-13.233,0-24,10.766-24,24s10.767,24,24,24s24-10.766,24-24S229.233,160,216,160z M216,192c-4.411,0-8-3.589-8-8
		s3.589-8,8-8s8,3.589,8,8S220.411,192,216,192z"/>
</g>
<g>
</g>
<g>
</g>
<g>
</g>
<g>
</g>
<g>
</g>
<g>
</g>
<g>
</g>
<g>
</g>
<g>
</g>
<g>
</g>
<g>
</g>
<g>
</g>
<g>
</g>
<g>
</g>
<g>
</g>
</svg>
