<?xml version="1.0" encoding="iso-8859-1"?>
<!-- Generator: Adobe Illustrator 19.0.0, SVG Export Plug-In . SVG Version: 6.00 Build 0)  -->
<svg version="1.1" id="Capa_1" xmlns="http://www.w3.org/2000/svg" xmlns:xlink="http://www.w3.org/1999/xlink" x="0px" y="0px"
	 viewBox="0 0 512 512" style="enable-background:new 0 0 512 512;" xml:space="preserve">
<path style="fill:#C7E6FF;" d="M256.003,47.298c-114.372,0-207.406,93.045-207.406,207.406
	c0,114.372,93.035,207.416,207.406,207.416c114.362,0,207.406-93.044,207.406-207.416
	C463.409,140.342,370.365,47.298,256.003,47.298z M256.003,432.096c-97.808,0-177.382-79.574-177.382-177.392
	c0-97.808,79.574-177.382,177.382-177.382s177.382,79.574,177.382,177.382C433.385,352.522,353.811,432.096,256.003,432.096z"/>
<path style="fill:#92CDF4;" d="M463.409,254.704c0,114.372-93.044,207.416-207.406,207.416v-30.024
	c97.808,0,177.382-79.574,177.382-177.392c0-97.808-79.574-177.382-177.382-177.382V47.298
	C370.365,47.298,463.409,140.342,463.409,254.704z"/>
<g>
	<path style="fill:#FF6666;" d="M271.015,15.012v113.791c0,8.287-6.725,15.012-15.012,15.012c-8.297,0-15.012-6.725-15.012-15.012
		V15.012C240.991,6.725,247.706,0,256.003,0C264.29,0,271.015,6.725,271.015,15.012z"/>
	<path style="fill:#FF6666;" d="M270.014,383.207v113.781c0,7.956-6.185,14.462-14.011,14.972c-0.33,0.03-0.661,0.04-1.001,0.04
		c-8.297,0-15.012-6.715-15.012-15.012V383.207c0-8.297,6.715-15.012,15.012-15.012c0.34,0,0.671,0.01,1.001,0.04
		C263.829,368.745,270.014,375.251,270.014,383.207z"/>
	<path style="fill:#FF6666;" d="M128.799,270.999H15.013c-8.291,0-15.012-6.721-15.012-15.012c0-8.291,6.721-15.012,15.012-15.012
		h113.786c8.291,0,15.012,6.721,15.012,15.012C143.811,264.278,137.09,270.999,128.799,270.999z"/>
</g>
<path style="fill:#FF3E3E;" d="M496.987,270.999H383.202c-8.291,0-15.012-6.721-15.012-15.012c0-8.291,6.721-15.012,15.012-15.012
	h113.785c8.291,0,15.012,6.721,15.012,15.012C511.999,264.278,505.278,270.999,496.987,270.999z"/>
<path style="fill:#FF6666;" d="M271.015,254.714c0,0.49-0.03,0.981-0.08,1.471c-0.05,0.49-0.12,0.981-0.22,1.461
	c-0.09,0.47-0.21,0.951-0.36,1.421c-0.14,0.47-0.31,0.931-0.49,1.381c-0.19,0.45-0.4,0.901-0.631,1.331
	c-0.23,0.43-0.48,0.851-0.751,1.261c-0.27,0.41-0.57,0.811-0.881,1.191s-0.641,0.741-0.991,1.091
	c-0.34,0.35-0.711,0.681-1.091,0.991s-0.781,0.61-1.191,0.881c-0.4,0.27-0.831,0.52-1.261,0.751c-0.43,0.23-0.871,0.44-1.331,0.631
	c-0.45,0.18-0.911,0.35-1.381,0.49c-0.46,0.14-0.941,0.27-1.421,0.36c-0.48,0.1-0.971,0.17-1.461,0.22
	c-0.49,0.05-0.981,0.08-1.471,0.08s-0.991-0.03-1.481-0.08c-0.48-0.05-0.971-0.12-1.451-0.22c-0.48-0.09-0.961-0.22-1.431-0.36
	c-0.46-0.14-0.931-0.31-1.381-0.49c-0.45-0.19-0.901-0.4-1.331-0.631c-0.43-0.23-0.851-0.48-1.261-0.751s-0.811-0.57-1.181-0.881
	c-0.38-0.31-0.751-0.641-1.101-0.991c-0.35-0.35-0.681-0.711-0.991-1.091c-0.31-0.38-0.6-0.781-0.871-1.191
	c-0.27-0.41-0.53-0.831-0.761-1.261c-0.23-0.43-0.44-0.881-0.62-1.331c-0.19-0.45-0.36-0.911-0.5-1.381s-0.26-0.951-0.36-1.421
	c-0.1-0.48-0.17-0.971-0.22-1.461c-0.05-0.49-0.07-0.981-0.07-1.471c0-0.49,0.02-0.991,0.07-1.481c0.05-0.49,0.12-0.981,0.22-1.461
	c0.1-0.47,0.22-0.951,0.36-1.421c0.14-0.47,0.31-0.931,0.5-1.381c0.18-0.45,0.39-0.901,0.62-1.331c0.23-0.43,0.49-0.861,0.761-1.261
	c0.27-0.41,0.56-0.811,0.871-1.191c0.31-0.38,0.641-0.751,0.991-1.091c0.35-0.35,0.721-0.681,1.101-0.991
	c0.37-0.31,0.771-0.61,1.181-0.881c0.41-0.27,0.831-0.52,1.261-0.751c0.43-0.23,0.881-0.44,1.331-0.631
	c0.45-0.18,0.921-0.35,1.381-0.49c0.47-0.14,0.951-0.27,1.431-0.36c0.48-0.1,0.971-0.17,1.451-0.22c0.49-0.05,0.981-0.08,1.481-0.08
	c0.49,0,0.981,0.03,1.471,0.08c0.49,0.05,0.981,0.12,1.461,0.22c0.48,0.09,0.961,0.22,1.421,0.36c0.47,0.14,0.931,0.31,1.381,0.49
	c0.46,0.19,0.901,0.4,1.331,0.631c0.43,0.23,0.861,0.48,1.261,0.751c0.41,0.27,0.811,0.57,1.191,0.881
	c0.38,0.31,0.751,0.641,1.091,0.991c0.35,0.34,0.681,0.711,0.991,1.091c0.31,0.38,0.61,0.781,0.881,1.191
	c0.27,0.4,0.52,0.831,0.751,1.261c0.23,0.43,0.44,0.881,0.631,1.331c0.18,0.45,0.35,0.911,0.49,1.381
	c0.15,0.47,0.27,0.951,0.36,1.421c0.1,0.48,0.17,0.971,0.22,1.461C270.985,253.723,271.015,254.224,271.015,254.714z"/>
<g>
	<path style="fill:#FF3E3E;" d="M270.014,383.207v113.781c0,7.956-6.185,14.462-14.011,14.972V368.235
		C263.829,368.745,270.014,375.251,270.014,383.207z"/>
	<path style="fill:#FF3E3E;" d="M270.935,253.233c0.05,0.49,0.08,0.991,0.08,1.481c0,0.49-0.03,0.981-0.08,1.471
		c-0.05,0.49-0.12,0.981-0.22,1.461c-0.09,0.47-0.21,0.951-0.36,1.421c-0.14,0.47-0.31,0.931-0.49,1.381
		c-0.19,0.45-0.4,0.901-0.631,1.331c-0.23,0.43-0.48,0.851-0.751,1.261c-0.27,0.41-0.57,0.811-0.881,1.191s-0.641,0.741-0.991,1.091
		c-0.34,0.35-0.711,0.681-1.091,0.991s-0.781,0.61-1.191,0.881c-0.4,0.27-0.831,0.52-1.261,0.751c-0.43,0.23-0.871,0.44-1.331,0.631
		c-0.45,0.18-0.911,0.35-1.381,0.49c-0.46,0.14-0.941,0.27-1.421,0.36c-0.48,0.1-0.971,0.17-1.461,0.22
		c-0.49,0.05-0.981,0.08-1.471,0.08v-30.034c0.49,0,0.981,0.03,1.471,0.08c0.49,0.05,0.981,0.12,1.461,0.22
		c0.48,0.09,0.961,0.22,1.421,0.36c0.47,0.14,0.931,0.31,1.381,0.49c0.46,0.19,0.901,0.4,1.331,0.631
		c0.43,0.23,0.861,0.48,1.261,0.751c0.41,0.27,0.811,0.57,1.191,0.881c0.38,0.31,0.751,0.641,1.091,0.991
		c0.35,0.34,0.681,0.711,0.991,1.091c0.31,0.38,0.61,0.781,0.881,1.191c0.27,0.4,0.52,0.831,0.751,1.261
		c0.23,0.43,0.44,0.881,0.631,1.331c0.18,0.45,0.35,0.911,0.49,1.381c0.15,0.47,0.27,0.951,0.36,1.421
		C270.815,252.252,270.885,252.742,270.935,253.233z"/>
	<path style="fill:#FF3E3E;" d="M271.015,15.012v113.791c0,8.287-6.725,15.012-15.012,15.012V0
		C264.29,0,271.015,6.725,271.015,15.012z"/>
</g>
<g>
</g>
<g>
</g>
<g>
</g>
<g>
</g>
<g>
</g>
<g>
</g>
<g>
</g>
<g>
</g>
<g>
</g>
<g>
</g>
<g>
</g>
<g>
</g>
<g>
</g>
<g>
</g>
<g>
</g>
</svg>
